<!DOCTYPE svg PUBLIC "-//W3C//DTD SVG 1.1//EN" "http://www.w3.org/Graphics/SVG/1.1/DTD/svg11.dtd">
<!-- Uploaded to: SVG Repo, www.svgrepo.com, Transformed by: SVG Repo Mixer Tools -->
<svg fill="#f2964a" height="800px" width="800px" version="1.1" id="Capa_1" xmlns="http://www.w3.org/2000/svg" xmlns:xlink="http://www.w3.org/1999/xlink" viewBox="-4.21 -4.21 429.43 429.43" xml:space="preserve" stroke="#f2964a" stroke-width="3.7891169999999996">
<g id="SVGRepo_bgCarrier" stroke-width="0"/>
<g id="SVGRepo_tracerCarrier" stroke-linecap="round" stroke-linejoin="round" stroke="#CCCCCC" stroke-width="0.8420259999999999"/>
<g id="SVGRepo_iconCarrier"> <g> <path d="M394.997,353.016h-91.241v-87.418c1.685,0.588,3.488,0.923,5.371,0.923c9.028,0,16.374-7.345,16.374-16.375v-81.705 c0-33.036-26.877-59.913-59.913-59.913h-44.166c-33.036,0-59.913,26.877-59.913,59.913v59.206c0,9.029,7.346,16.375,16.375,16.375 c1.884,0,3.687-0.336,5.373-0.924v109.918H97.513v-27.498c0-21.228-17.271-38.498-38.499-38.498s-38.498,17.27-38.498,38.498 s17.27,38.498,38.498,38.498c3.038,0,5.5-2.462,5.5-5.5s-2.462-5.5-5.5-5.5c-15.163,0-27.498-12.336-27.498-27.498 s12.335-27.498,27.498-27.498s27.499,12.336,27.499,27.498v32.998c0,34.461,28.036,62.497,62.497,62.497H338 c34.461,0,62.497-28.036,62.497-62.497C400.497,355.478,398.034,353.016,394.997,353.016z M177.883,233.022 c-2.963,0-5.375-2.411-5.375-5.375v-59.206c0-26.971,21.942-48.913,48.913-48.913h44.166c26.971,0,48.913,21.942,48.913,48.913 v81.705c0,2.964-2.411,5.375-5.374,5.375c-2.951,0-5.35-2.39-5.371-5.336V208.9c0-0.052-0.006-0.102-0.008-0.154 c-0.082-13.094-10.756-23.722-23.869-23.723h-0.551h-0.001c-6.229,0-12.086,2.426-16.491,6.829 c-4.405,4.405-6.832,10.262-6.832,16.492v0.782c0,4.38-1.706,8.499-4.804,11.596c-3.098,3.097-7.215,4.802-11.593,4.802 c-0.001,0-0.002,0-0.003,0l-0.605,0c-9.369-0.001-16.991-7.624-16.991-16.993l-0.001-20.633c0-10.683-8.691-19.374-19.375-19.374 c-10.489,0-19.036,8.383-19.345,18.798c-0.02,0.19,0,40.339,0,40.339C183.279,230.618,180.842,233.022,177.883,233.022z M194.258,187.899c0-4.618,3.757-8.374,8.375-8.374s8.375,3.757,8.375,8.375l0.001,20.633c0,15.433,12.556,27.991,27.988,27.993 l0.605,0c0.002,0,0.003,0,0.004,0c7.317,0,14.197-2.849,19.372-8.023c5.176-5.175,8.026-12.056,8.026-19.375v-0.782 c0-3.292,1.282-6.386,3.609-8.713s5.422-3.608,8.714-3.608h0.001h0.551c7.098,0,12.873,5.776,12.873,12.875l0.004,144.117h-98.5 L194.258,187.899z M338,410.013H149.01c-26.538,0-48.452-20.178-51.206-45.997h291.401 C386.451,389.835,364.538,410.013,338,410.013z"/> <path d="M246.505,101.508c11.011,0,22.022-4.191,30.404-12.573c16.765-16.765,16.765-44.043,0-60.808L250.393,1.611 c-2.146-2.148-5.631-2.148-7.777,0L216.1,28.126c-16.765,16.765-16.765,44.043,0,60.809 C224.482,97.317,235.494,101.508,246.505,101.508z M223.878,35.905l22.627-22.626l22.627,22.626 c12.476,12.476,12.476,32.776,0,45.252c-12.478,12.476-32.776,12.475-45.254,0C211.402,68.681,211.402,48.38,223.878,35.905z"/> <circle cx="216.238" cy="258.737" r="8"/> <circle cx="270.774" cy="258.737" r="8"/> <path d="M249.376,266.73c-3.236,3.237-8.503,3.236-11.739,0c-2.146-2.148-5.63-2.148-7.778,0c-2.147,2.148-2.147,5.63,0.001,7.778 c3.763,3.762,8.705,5.644,13.646,5.644c4.942,0,9.885-1.881,13.647-5.644c2.148-2.148,2.148-5.63,0.001-7.778 C255.007,264.582,251.523,264.581,249.376,266.73z"/> </g> </g>
</svg>